<?xml version="1.0" encoding="utf-8"?>
<!-- Svg Vector Icons : http://www.onlinewebfonts.com/icon -->
<!DOCTYPE svg PUBLIC "-//W3C//DTD SVG 1.1//EN" "http://www.w3.org/Graphics/SVG/1.1/DTD/svg11.dtd">
<svg version="1.1" xmlns="http://www.w3.org/2000/svg" xmlns:xlink="http://www.w3.org/1999/xlink" x="0px" y="0px" viewBox="0 0 1000 1000" enable-background="new 0 0 1000 1000" xml:space="preserve">
<metadata> Svg Vector Icons : http://www.onlinewebfonts.com/icon </metadata>
<g><g transform="translate(0.000000,511.000000) scale(0.100000,-0.100000)"><path d="M4216.2,4995.6c-691.8-55.4-1481.7-201.3-2135.7-389.9c-817.6-236.5-933.3-309.4-933.3-588.7c2.5-128.3,166-540.8,1745.8-4367.1c958.4-2324.4,1758.4-4253.9,1778.5-4284.1c47.8-70.4,221.4-153.4,322-155.9c120.7,0,276.7,90.5,334.6,196.2c88,156,3484.1,8412.2,3511.8,8535.4c22.7,100.6,17.6,130.8-30.2,231.4c-70.4,148.4-143.4,188.7-530.8,319.5c-646.5,213.8-1438.9,387.4-2138.3,467.9C5738.1,5005.7,4608.6,5025.8,4216.2,4995.6z M6102.9,4557.9c455.3-52.8,870.4-128.3,1285.5-228.9c362.3-90.6,948.4-269.2,1016.3-311.9c30.2-20.1,12.6-83-113.2-389.9c-80.5-203.8-148.4-367.3-151-367.3c-2.5,0-145.9,45.3-316.9,100.6c-958.5,311.9-1783.6,440.2-2840.1,440.2c-1033.9,0-1846.4-128.3-2820-440.2c-171.1-52.8-319.5-90.6-327-80.5c-15.1,17.6-299.4,701.9-299.4,722c0,17.6,694.3,236.5,1006.2,314.5c525.8,133.3,1237.7,244,1811.2,286.8C4651.4,4623.3,5790.9,4595.7,6102.9,4557.9z M5926.8,3363c392.4-47.8,827.6-128.3,1174.8-216.3c362.2-90.6,825.1-233.9,857.8-261.6c10.1-10.1-266.6-714.4-616.3-1562.2L6706.6-221.7l-289.3-2.5c-233.9,0-322-12.6-457.9-57.9c-973.5-334.6-1283-1567.2-573.6-2294.2c75.5-78,166-161,198.7-183.7l60.4-40.2l-296.8-724.5c-163.5-397.4-311.9-752.1-327-787.4l-32.7-60.4l-42.8,98.1c-334.6,805-1069.1,2598.6-1069.1,2618.7c0,15.1,35.2,57.9,78,100.6c42.8,40.2,108.2,130.8,143.4,198.7c57.9,108.1,67.9,158.5,67.9,339.6c0,176.1-10.1,236.4-60.4,339.6c-130.8,261.6-374.8,430.2-671.7,460.3L3265.3-199L3094.2,216c-95.6,228.9-181.1,435.2-188.7,460.4c-10.1,35.2,25.2,83,138.4,183.6c105.7,95.6,176.1,188.7,234,306.9c78,156,83,183.6,83,432.7s-5,276.7-83,432.7c-103.1,211.3-322,420.1-525.8,500.6c-115.7,47.8-196.2,57.9-392.4,60.4h-249.1l-57.9,143.4l-60.4,145.9l319.5,100.6c679.2,218.9,1388.6,357.2,2105.6,412.5C4643.8,3413.3,5695.3,3390.7,5926.8,3363z M2691.7,2110.3c221.4-138.4,337.1-450.3,256.6-694.3c-37.7-113.2-173.6-299.4-206.3-289.3c-25.2,7.5-450.3,1008.7-450.3,1059.1S2571,2183.2,2691.7,2110.3z M6500.3-629.2c27.7-10-45.3-206.3-324.5-885.5c-198.7-480.5-369.8-875.4-379.9-878c-37.7-12.6-228.9,203.8-294.3,332.1c-191.2,384.9-110.7,847.7,201.3,1159.7c115.7,115.7,304.4,223.9,455.4,259.1C6271.4-614.1,6447.5-609.1,6500.3-629.2z"/><path d="M5489.1,2970.6c-794.9-223.9-1147.1-1154.7-694.3-1833.9C5069,724.2,5564.5,520.4,6045,621c425.1,90.6,777.3,412.5,903.1,832.7c70.4,226.4,57.9,563.5-25.2,782.3c-123.3,314.4-405,588.7-724.5,701.9C6004.8,3005.8,5670.2,3020.9,5489.1,2970.6z M6150.7,2520.3c150.9-72.9,284.3-206.3,372.3-372.3c47.8-90.5,57.9-145.9,57.9-347.1s-10.1-256.6-57.9-347.1c-88.1-166-221.4-299.4-377.4-374.8c-120.7-60.4-173.6-70.4-344.6-70.4c-264.1,2.5-420.1,67.9-588.7,254.1c-284.3,309.4-286.8,759.7-10,1066.6c181.1,201.2,374.8,281.7,641.5,266.7C5962,2590.7,6055.1,2568.1,6150.7,2520.3z"/></g></g>
</svg>